<svg width="176" height="92" viewBox="0 0 176 92" fill="none" xmlns="http://www.w3.org/2000/svg">
<circle cx="4" cy="4" r="4" fill="#E0CA3C"/>
<circle cx="4" cy="25" r="4" fill="#E0CA3C"/>
<circle cx="4" cy="46" r="4" fill="#E0CA3C"/>
<circle cx="4" cy="67" r="4" fill="#E0CA3C"/>
<circle cx="4" cy="88" r="4" fill="#E0CA3C"/>
<circle cx="28" cy="4" r="4" fill="#E0CA3C"/>
<circle cx="28" cy="25" r="4" fill="#E0CA3C"/>
<circle cx="28" cy="46" r="4" fill="#E0CA3C"/>
<circle cx="28" cy="67" r="4" fill="#E0CA3C"/>
<circle cx="28" cy="88" r="4" fill="#E0CA3C"/>
<circle cx="52" cy="4" r="4" fill="#E0CA3C"/>
<circle cx="52" cy="25" r="4" fill="#E0CA3C"/>
<circle cx="52" cy="46" r="4" fill="#E0CA3C"/>
<circle cx="52" cy="67" r="4" fill="#E0CA3C"/>
<circle cx="52" cy="88" r="4" fill="#E0CA3C"/>
<circle cx="76" cy="4" r="4" fill="#E0CA3C"/>
<circle cx="76" cy="25" r="4" fill="#E0CA3C"/>
<circle cx="76" cy="46" r="4" fill="#E0CA3C"/>
<circle cx="76" cy="67" r="4" fill="#E0CA3C"/>
<circle cx="76" cy="88" r="4" fill="#E0CA3C"/>
<circle cx="100" cy="4" r="4" fill="#E0CA3C"/>
<circle cx="100" cy="25" r="4" fill="#E0CA3C"/>
<circle cx="100" cy="46" r="4" fill="#E0CA3C"/>
<circle cx="100" cy="67" r="4" fill="#E0CA3C"/>
<circle cx="100" cy="88" r="4" fill="#E0CA3C"/>
<circle cx="124" cy="4" r="4" fill="#E0CA3C"/>
<circle cx="124" cy="25" r="4" fill="#E0CA3C"/>
<circle cx="124" cy="46" r="4" fill="#E0CA3C"/>
<circle cx="124" cy="67" r="4" fill="#E0CA3C"/>
<circle cx="124" cy="88" r="4" fill="#E0CA3C"/>
<circle cx="148" cy="4" r="4" fill="#E0CA3C"/>
<circle cx="148" cy="25" r="4" fill="#E0CA3C"/>
<circle cx="148" cy="46" r="4" fill="#E0CA3C"/>
<circle cx="148" cy="67" r="4" fill="#E0CA3C"/>
<circle cx="148" cy="88" r="4" fill="#E0CA3C"/>
<circle cx="172" cy="4" r="4" fill="#E0CA3C"/>
<circle cx="172" cy="25" r="4" fill="#E0CA3C"/>
<circle cx="172" cy="46" r="4" fill="#E0CA3C"/>
<circle cx="172" cy="67" r="4" fill="#E0CA3C"/>
<circle cx="172" cy="88" r="4" fill="#E0CA3C"/>
</svg>
